<?xml version="1.0" encoding="utf-8"?>
<!-- Generator: Adobe Illustrator 24.2.3, SVG Export Plug-In . SVG Version: 6.00 Build 0)  -->
<svg version="1.1" id="Capa_1" xmlns="http://www.w3.org/2000/svg" xmlns:xlink="http://www.w3.org/1999/xlink" x="0px" y="0px"
	 viewBox="0 0 732 260" style="enable-background:new 0 0 732 260;" xml:space="preserve">
<style type="text/css">
	.st0{fill:#4476AB;}
</style>
<path class="st0" d="M357,99.2L357,99.2c4.9-8.7,14.3-14.1,24.3-13.9c11.4,0,20.4,5.5,25.4,15.8c6-10.3,16.5-15.8,28.2-15.8
	c21.5,0,31,17.4,31,37.5v51.8h-26.6v-48.6c0-8.3-3.3-16.8-12.9-16.8c-5.3,0-10.2,3.1-12.4,8c-1.4,2.6-2,5.5-2,8.5v48.9h-26.5v-48.6
	c0-8.3-3.3-16.8-12.9-16.8c-5.3,0-10.2,3.1-12.4,8c-1.3,2.6-2,5.5-2,8.5v48.9h-27.5v-7.5l-0.1-79.4h14.1
	C351.2,87.8,356.5,92.8,357,99.2"/>
<path class="st0" d="M468.8,65c-0.1-2.6,0.6-5.1,2-7.3c2.5-4.6,7.7-7.2,12.7-7.2c5.3-0.1,10.2,2.7,13,7.2c2.4,4.6,2.4,10.1,0,14.7
	c-2.8,4.5-7.7,7.2-13,7.2c-5,0-10.3-2.6-12.7-7.2C469.5,70.1,468.8,67.6,468.8,65 M470.3,87.8h26.6v86.9h-26.6V87.8z"/>
<path class="st0" d="M533.1,122c6.2-0.1,12.4,1.1,18.1,3.4V121c0-8.5-4.9-14-13.5-14c-5.7,0-11.3,2.6-13.5,8.1l-23.8-4.1
	c3.6-16.8,21.7-25.8,37.8-25.8c21.8,0,38.8,13.9,38.8,37v52.3h-23.8l-0.7-10.3c-4.9,8.8-15.3,12.7-24.9,12.7
	c-15.8,0-30.3-9.9-30.3-27.1C497.2,130.5,515.6,122,533.1,122 M534.9,157.4c8.8,0,16.3-5.7,16.3-15v-0.8c-4.1-1.9-8.6-2.8-13.2-2.8
	c-6,0-14.7,2-14.7,9.6C523.3,154.6,529.5,157.5,534.9,157.4"/>
<path class="st0" d="M613.1,122c6.2-0.1,12.4,1.1,18.1,3.4V121c0-8.5-4.9-14-13.5-14c-5.7,0-11.3,2.6-13.5,8.1l-23.8-4.1
	c3.6-16.8,21.7-25.8,37.8-25.8c21.8,0,38.8,13.9,38.8,37v52.3h-23.8l-0.7-10.3c-4.9,8.8-15.3,12.7-24.9,12.7
	c-15.8,0-30.3-9.9-30.3-27.1C577.3,130.5,595.7,122,613.1,122 M614.9,157.4c8.8,0,16.3-5.7,16.3-15v-0.8c-4.1-1.9-8.6-2.8-13.2-2.8
	c-6,0-14.7,2-14.7,9.6C603.3,154.6,609.5,157.5,614.9,157.4"/>
<path class="st0" d="M52.9,208.1c-0.7,0-1.3-0.1-2-0.2c-2.1-0.5-3.9-1.9-4.9-3.9c-7.7-13.6,5.2-76.5,17.3-113.8
	c14.5-44.3,29.1-68.7,44.8-74.5c6.4-2.4,13-1.6,19.3,2.1c5.8,3.5,11.4,11.6,17,22.7c1.9-0.8,3.9-1.4,5.9-1.6c8-1,15.4,2.8,22.1,11.3
	c3.9,5.1,8.4,12.1,13,19.5c7.4,11.7,19.7,31.4,25.8,32.4c10.4,1.8,34.8-19.6,49.3-35.9c1-1.5,2.2-3,3.4-4.4c5-5.4,10.1-4.9,12.6-4.2
	c18.5,5.2,33.2,65.7,40.3,101.3c0.5,2.6-1.2,5.2-3.8,5.7c-2.6,0.5-5.2-1.2-5.7-3.8C296.8,108.2,283,69.6,273.9,67
	c-0.4-0.1-1.2-0.3-2.9,1.5c-0.6,0.6-1.1,1.3-1.6,1.9c-0.2,0.5-0.5,0.9-0.8,1.3l-0.4,0.5c-5.5,8.4-11.7,24-17.7,39.1
	c-12.9,32.5-26.2,66-44.3,66c-1.4,0-2.7-0.2-4-0.5c-14.8-3.9-26.9-32.9-44.9-80.1c-5.4-14.2-11.2-29.3-16.9-41.9
	c-17,15.9-35.4,58.5-49.6,91.2C72.6,188.2,63.4,208.1,52.9,208.1z M115.6,24c-1.4,0-2.8,0.3-4.1,0.8c-8.6,3.2-22.3,17.6-38.9,68.4
	c-7.1,22-12.5,44.4-16.2,67.2c-3.6,22.5-3.2,33.2-2.4,37.1c6.4-5.5,18.8-34.1,28-55.4c19.4-44.9,36.4-81.6,54.2-96.4
	c-4.9-9.8-9.6-17-13.8-19.6C120.3,24.8,118,24.1,115.6,24z M148.6,49.3c5.7,12.6,11.5,27.8,17.7,43.9c12.1,31.8,27.3,71.3,38.4,74.2
	c11.8,3.1,26.9-34.6,36.8-59.6c2-5.2,4-10.1,6-14.8c-12.2,10.6-27,20.7-37.9,18.8c-9.6-1.7-19-15.7-32.3-36.8
	c-4.6-7.2-8.9-14.1-12.5-18.7c-6.6-8.5-11.6-7.8-13.2-7.6C150.5,48.7,149.5,48.9,148.6,49.3L148.6,49.3z"/>
<path class="st0" d="M271.2,50.5c-12,0-21.7-9.7-21.7-21.7c0-12,9.7-21.7,21.7-21.7c12,0,21.7,9.7,21.7,21.7c0,0,0,0,0,0
	C292.9,40.8,283.2,50.5,271.2,50.5z M271.2,16.7c-6.7,0-12.1,5.3-12.1,12s5.3,12.1,12,12.1s12.1-5.3,12.1-12c0,0,0-0.1,0-0.1
	C283.1,22.1,277.8,16.8,271.2,16.7z"/>
<path class="st0" d="M16,220.9l8.4,15.5l8.5-15.5H38v26.8h-5.4v-16.9l-6.2,11.3h-4l-6.2-11.3v16.9h-5.4v-26.8H16z"/>
<path class="st0" d="M50.4,227.2c5.6-0.1,10.2,4.3,10.3,9.9c0,0.2,0,0.4,0,0.6c0,5.7-4.7,10.4-10.5,10.3c-5.7,0-10.4-4.7-10.3-10.5
	C40,231.8,44.7,227.2,50.4,227.2z M45.3,237.7c0,2.9,1.8,5.8,5,5.8s5-2.8,5-5.8s-1.8-5.8-5-5.8S45.3,234.8,45.3,237.7z"/>
<path class="st0" d="M61.8,237.9c0-5.4,3.6-10.6,9.4-10.6c2.3-0.1,4.5,0.9,5.9,2.8v-10.4h5.3v28.1h-4.9l-0.2-2.9
	c-1.4,2.2-3.9,3.5-6.5,3.5C65.3,248.3,61.8,243.2,61.8,237.9z M72.2,243.5c3.1,0,5-2.8,5-5.8s-1.8-5.8-5-5.8s-5,2.8-5,5.8
	S69,243.5,72.2,243.5z"/>
<path class="st0" d="M93.9,227.2c6.1,0,9.7,4.5,9.7,10.5v1.3H89.3c0.4,2.6,2,4.8,4.9,4.8c1.8,0,3.4-0.9,4.3-2.5l4.7,1.5
	c-1.4,3.6-5.3,5.4-9,5.4c-6,0-10.2-4.5-10.2-10.5C84,232,87.9,227.2,93.9,227.2z M89.4,235.5h8.8c-0.3-2.3-1.8-4.2-4.3-4.2
	S89.8,233.2,89.4,235.5L89.4,235.5z"/>
<path class="st0" d="M105,219.6h5.3v28.1H105V219.6z"/>
<path class="st0" d="M122.3,227.2c5.6-0.1,10.2,4.3,10.3,9.9c0,0.2,0,0.4,0,0.6c0,5.7-4.7,10.4-10.5,10.3c-5.7,0-10.4-4.7-10.3-10.5
	C111.9,231.8,116.6,227.2,122.3,227.2z M117.2,237.7c0,2.9,1.9,5.8,5,5.8s5-2.8,5-5.8s-1.8-5.8-5-5.8S117.2,234.8,117.2,237.7z"/>
<path class="st0" d="M140.6,220.9h5.6v26.8h-5.6V220.9z"/>
<path class="st0" d="M153.7,227.8l0.1,2.6c1.2-2,3.5-3.2,5.9-3.1c4.9,0,7.3,3.9,7.3,8.5v11.9h-5.3v-11.3c0-2.3-0.9-4.5-3.5-4.5
	c-2.2,0-4,1.7-4.1,3.9c0,0.1,0,0.3,0,0.4v11.4h-5.3v-19.9H153.7z"/>
<path class="st0" d="M170.7,227.8V221h5.3v6.8h5.4v4.3H176v8.6c0,1.7,0.6,3,2.4,3c1,0,1.9-0.3,2.8-0.7l0.9,4
	c-1.4,0.9-3.1,1.3-4.8,1.3c-4.2,0-6.7-2.6-6.7-6.9v-9.3h-3.4v-4.3L170.7,227.8z"/>
<path class="st0" d="M192.2,227.2c6.1,0,9.7,4.5,9.7,10.5v1.3h-14.3c0.4,2.6,2,4.8,4.9,4.8c1.8,0,3.4-0.9,4.3-2.5l4.7,1.5
	c-1.4,3.6-5.3,5.4-9,5.4c-6,0-10.2-4.5-10.2-10.5C182.3,232,186.2,227.2,192.2,227.2z M187.7,235.5h8.8c-0.3-2.3-1.8-4.2-4.3-4.2
	S188.1,233.2,187.7,235.5L187.7,235.5z"/>
<path class="st0" d="M211.9,227.2c2.4-0.1,4.6,1,6,3l0.1-2.5h4.9v17.5c0,6-4,10.2-10.2,10.2c-3.9,0-7.5-1.8-9.1-5.5l5-1.3
	c0.9,1.5,2.5,2.4,4.2,2.3c3.1,0,4.8-2.2,4.8-5.3v-1.6c-1.4,1.9-3.7,2.9-6,2.9c-5.4,0-8.9-4.7-8.9-9.8S206.3,227.2,211.9,227.2z
	 M208.1,237.2c-0.2,2.8,2,5.1,4.7,5.3c0,0,0.1,0,0.1,0c2.9,0,4.8-2.4,4.8-5.3s-1.8-5.3-4.8-5.3S208.1,234.3,208.1,237.2z"/>
<path class="st0" d="M230.1,227.8l0.2,3c0.8-2,2.8-3.3,5-3.3c0.4,0,0.7,0,1,0.1c0.3,0.1,0.6,0.1,0.9,0.3l-0.6,5.2
	c-0.6-0.2-1.1-0.3-1.7-0.3c-3.2,0-4.5,2.1-4.5,5.1v9.8h-5.3v-19.9H230.1z"/>
<path class="st0" d="M237,242c0-4.5,4.2-6.4,8.2-6.4c1.6,0,3.1,0.3,4.5,0.9v-1.2c0-2.2-1.3-3.8-3.6-3.8c-1.6-0.1-3.1,0.9-3.7,2.4
	l-4.7-0.9c0.9-3.8,4.8-5.8,8.5-5.8c5,0,8.6,3.2,8.6,8.4v12h-4.7l-0.1-2.3c-1.3,1.9-3.5,3-5.9,2.9C240.4,248.3,237,246,237,242z
	 M245.4,244.1c2.3,0.1,4.2-1.6,4.3-3.9c0,0,0-0.1,0-0.1V240c-0.6-0.2-1.2-0.4-1.8-0.6c-0.6-0.1-1.3-0.2-1.9-0.2
	c-1.6,0-3.8,0.6-3.8,2.6C242.2,243.5,243.9,244.2,245.4,244.1L245.4,244.1z"/>
<path class="st0" d="M257.1,219.6h5.3v28.1h-5.3V219.6z"/>
<path class="st0" d="M270,237.9c0-5.4,3.6-10.6,9.4-10.6c2.3-0.1,4.5,1,5.9,2.8v-10.4h5.3v28.1h-4.9l-0.1-2.9
	c-1.4,2.2-3.9,3.5-6.5,3.5C273.5,248.3,270,243.2,270,237.9z M280.4,243.5c3.1,0,5-2.8,5-5.8s-1.8-5.8-5-5.8s-5,2.8-5,5.8
	S277.2,243.5,280.4,243.5L280.4,243.5z"/>
<path class="st0" d="M302.1,227.2c6.1,0,9.7,4.5,9.7,10.5v1.3h-14.3c0.4,2.6,2,4.8,4.9,4.8c1.8,0,3.4-0.9,4.3-2.5l4.7,1.5
	c-1.4,3.6-5.3,5.4-9,5.4c-6,0-10.2-4.5-10.2-10.5C292.2,232,296.1,227.2,302.1,227.2z M297.6,235.5h8.8c-0.3-2.3-1.8-4.2-4.3-4.2
	S298,233.2,297.6,235.5z"/>
<path class="st0" d="M328.3,220.9h6l10.7,26.8h-5.8l-2.1-5.9h-11.6l-2.2,5.9h-5.5L328.3,220.9z M327.2,237.1h8l-4-10.7L327.2,237.1z
	"/>
<path class="st0" d="M353.5,227.2c2.4-0.1,4.6,1,6,3l0.1-2.5h4.9v17.5c0,6-4,10.2-10.2,10.2c-3.9,0-7.5-1.8-9.1-5.5l5-1.3
	c0.9,1.5,2.5,2.4,4.2,2.3c3.1,0,4.8-2.2,4.8-5.3v-1.6c-1.4,1.9-3.7,2.9-6,2.9c-5.4,0-8.9-4.7-8.9-9.8S347.9,227.2,353.5,227.2z
	 M349.6,237.2c-0.2,2.8,2,5.1,4.7,5.3c0,0,0.1,0,0.1,0c2.9,0,4.8-2.4,4.8-5.3s-1.8-5.3-4.8-5.3S349.6,234.3,349.6,237.2z"/>
<path class="st0" d="M372.1,227.8v11.1c0,2.4,1.1,4.6,3.8,4.6s3.8-2.2,3.8-4.6v-11.1h5.3v11c0,5.4-3.4,9.5-9.1,9.5
	c-5.6,0-9-3.9-9-9.5v-11H372.1z"/>
<path class="st0" d="M386.3,242c0-4.5,4.2-6.4,8.2-6.4c1.6,0,3.1,0.3,4.5,0.9v-1.2c0-2.2-1.3-3.8-3.6-3.8c-1.6-0.1-3.1,0.9-3.7,2.4
	L387,233c0.9-3.8,4.8-5.8,8.5-5.8c5,0,8.6,3.2,8.6,8.4v12h-4.7l-0.1-2.3c-1.3,1.9-3.5,3-5.9,2.9C389.8,248.3,386.3,246,386.3,242z
	 M394.7,244.1c2.3,0.1,4.2-1.6,4.3-3.9c0,0,0-0.1,0-0.1V240c-0.6-0.2-1.2-0.4-1.8-0.6c-0.6-0.1-1.3-0.2-1.9-0.2
	c-1.6,0-3.8,0.6-3.8,2.6C391.5,243.5,393.2,244.2,394.7,244.1L394.7,244.1z"/>
<path class="st0" d="M410,241.7c0.5,1.6,2,2.6,3.7,2.5c1.3,0,2.9-0.5,2.9-2.1s-1.9-2-3.2-2.2l-1-0.2c-3.3-0.6-6.6-2.2-6.6-6
	c0-4.3,3.7-6.5,7.7-6.5c3.5,0,7,1.7,7.9,5.4l-4.7,1c-0.4-1.4-1.7-2.4-3.2-2.4c-1.2,0-2.7,0.6-2.7,2s2.2,1.9,3.2,2.1l1,0.2
	c3.4,0.6,6.6,2.3,6.6,6.1c0,4.4-4,6.7-8.1,6.7c-3.6,0-7.3-1.8-8.4-5.5L410,241.7z"/>
<path class="st0" d="M428.3,237.9c0-5.4,3.6-10.6,9.4-10.6c2.3-0.1,4.5,1,5.9,2.8v-10.4h5.3v28.1h-4.9l-0.1-2.9
	c-1.4,2.2-3.9,3.5-6.5,3.5C431.9,248.3,428.3,243.2,428.3,237.9z M438.7,243.5c3.1,0,5-2.8,5-5.8s-1.8-5.8-5-5.8s-5,2.8-5,5.8
	S435.5,243.5,438.7,243.5z"/>
<path class="st0" d="M460.4,227.2c6.1,0,9.7,4.5,9.7,10.5v1.3h-14.3c0.4,2.6,2,4.8,4.9,4.8c1.8,0,3.4-0.9,4.3-2.5l4.7,1.5
	c-1.4,3.6-5.3,5.4-9,5.4c-6,0-10.2-4.5-10.2-10.5C450.5,232,454.5,227.2,460.4,227.2z M455.9,235.5h8.8c-0.3-2.3-1.8-4.2-4.3-4.2
	S456.4,233.2,455.9,235.5z"/>
<path class="st0" d="M486.6,220.9h6l10.7,26.8h-5.8l-2.2-5.9h-11.6l-2.2,5.9H476L486.6,220.9z M485.5,237.1h8l-4-10.7L485.5,237.1z"
	/>
<path class="st0" d="M511.8,227.2c2.4-0.1,4.6,1,6,3l0.1-2.5h4.9v17.5c0,6-4,10.2-10.2,10.2c-3.9,0.2-7.5-2-9.2-5.5l5-1.3
	c0.9,1.5,2.5,2.4,4.2,2.3c3.1,0,4.8-2.2,4.8-5.3v-1.6c-1.4,1.9-3.7,2.9-6,2.9c-5.3,0-8.9-4.7-8.9-9.8S506.2,227.2,511.8,227.2z
	 M508,237.2c-0.2,2.8,2,5.1,4.7,5.3c0,0,0.1,0,0.1,0c2.9,0,4.8-2.4,4.8-5.3s-1.8-5.3-4.8-5.3S508,234.3,508,237.2z"/>
<path class="st0" d="M530.5,227.8v11.1c0,2.4,1.1,4.6,3.8,4.6s3.8-2.2,3.8-4.6v-11.1h5.3v11c0,5.4-3.4,9.5-9.1,9.5
	c-5.6,0-9-3.9-9-9.5v-11H530.5z"/>
<path class="st0" d="M544.7,242c0-4.5,4.2-6.4,8.2-6.4c1.5,0,3.1,0.3,4.5,0.9v-1.2c0-2.2-1.3-3.8-3.6-3.8c-1.6-0.1-3.1,0.9-3.7,2.4
	l-4.7-0.9c0.9-3.8,4.8-5.8,8.5-5.8c5,0,8.6,3.2,8.6,8.4v12h-4.7l-0.2-2.3c-1.3,1.9-3.5,3-5.9,2.9C548.1,248.3,544.7,246,544.7,242z
	 M553,244.1c2.3,0.1,4.2-1.6,4.3-3.9c0,0,0-0.1,0-0.1V240c-0.6-0.2-1.2-0.4-1.8-0.6c-0.6-0.1-1.2-0.2-1.9-0.2
	c-1.6,0-3.8,0.6-3.8,2.6C549.9,243.5,551.6,244.2,553,244.1L553,244.1z"/>
<path class="st0" d="M568.4,241.7c0.5,1.6,2,2.6,3.7,2.5c1.3,0,2.9-0.5,2.9-2.1s-1.9-2-3.2-2.2l-1.1-0.2c-3.3-0.6-6.6-2.2-6.6-6
	c0-4.3,3.7-6.5,7.7-6.5c3.5,0,7,1.7,7.9,5.4l-4.7,1c-0.4-1.4-1.7-2.4-3.2-2.4c-1.2,0-2.7,0.6-2.7,2s2.2,1.9,3.2,2.1l1.1,0.2
	c3.3,0.6,6.6,2.3,6.6,6.1c0,4.4-4,6.7-8.1,6.7c-3.6,0-7.3-1.8-8.4-5.5L568.4,241.7z"/>
<path class="st0" d="M590.8,227.2c4.1-0.2,7.8,2.5,8.8,6.5l-5,1c-0.6-1.6-2.1-2.7-3.9-2.7c-3.1,0-4.6,3-4.6,5.8s1.5,5.7,4.6,5.7
	c1.8,0,3.4-1.1,4.1-2.8l5,1c-1.1,4.2-4.9,6.5-9.1,6.5c-5.8,0-10-4.5-10-10.4S584.8,227.2,590.8,227.2z"/>
<path class="st0" d="M600.1,242c0-4.5,4.2-6.4,8.2-6.4c1.5,0,3.1,0.3,4.5,0.9v-1.2c0-2.2-1.3-3.8-3.6-3.8c-1.6-0.1-3.1,0.9-3.7,2.4
	l-4.7-0.9c0.9-3.8,4.8-5.8,8.5-5.8c5,0,8.6,3.2,8.6,8.4v12h-4.7l-0.2-2.3c-1.3,1.9-3.5,3-5.9,2.9C603.6,248.3,600.1,246,600.1,242z
	 M608.5,244.1c2.3,0.1,4.2-1.6,4.3-3.9c0,0,0-0.1,0-0.1V240c-0.6-0.2-1.2-0.4-1.8-0.6c-0.6-0.1-1.2-0.2-1.9-0.2
	c-1.6,0-3.8,0.6-3.8,2.6C605.3,243.5,607,244.2,608.5,244.1L608.5,244.1z"/>
<path class="st0" d="M620.3,219.6h5.3v28.1h-5.3V219.6z"/>
<path class="st0" d="M627.5,222.4c0-1.7,1.3-3,3-3c1.6-0.1,2.9,1.2,3,2.8c0,0.1,0,0.1,0,0.2c0,1.7-1.3,3-3,3
	S627.5,224.1,627.5,222.4z M627.9,227.8h5.3v19.9h-5.3V227.8z"/>
<path class="st0" d="M644.7,227.2c6.1,0,9.7,4.5,9.7,10.5v1.3h-14.3c0.4,2.6,2,4.8,4.9,4.8c1.8,0,3.4-0.9,4.3-2.5l4.7,1.5
	c-1.4,3.6-5.3,5.4-9,5.4c-6,0-10.2-4.5-10.2-10.5C634.8,232,638.7,227.2,644.7,227.2z M640.2,235.5h8.8c-0.3-2.3-1.8-4.2-4.3-4.2
	S640.6,233.2,640.2,235.5z"/>
<path class="st0" d="M660.6,227.8l0.2,2.6c1.2-2,3.5-3.2,5.9-3.1c4.9,0,7.3,3.9,7.3,8.5v11.9h-5.3v-11.3c0-2.3-1-4.5-3.5-4.5
	c-2.2,0-4,1.7-4.1,3.9c0,0.1,0,0.3,0,0.4v11.4h-5.3v-19.9H660.6z"/>
<path class="st0" d="M677.7,227.8V221h5.3v6.8h5.4v4.3h-5.4v8.6c0,1.7,0.6,3,2.4,3c1,0,1.9-0.3,2.8-0.7l0.9,4
	c-1.4,0.9-3.1,1.3-4.8,1.3c-4.2,0-6.7-2.6-6.7-6.9v-9.3h-3.4v-4.3L677.7,227.8z"/>
<path class="st0" d="M699.1,227.2c6.1,0,9.7,4.5,9.7,10.5v1.3h-14.3c0.4,2.6,2,4.8,4.9,4.8c1.8,0,3.4-0.9,4.3-2.5l4.7,1.5
	c-1.4,3.6-5.3,5.4-9,5.4c-6,0-10.2-4.5-10.2-10.5C689.2,232,693.2,227.2,699.1,227.2z M694.6,235.5h8.8c-0.3-2.3-1.8-4.2-4.3-4.2
	S695.1,233.2,694.6,235.5z"/>
<path class="st0" d="M714,241.7c0.5,1.6,2,2.6,3.7,2.5c1.3,0,2.9-0.5,2.9-2.1s-1.9-2-3.2-2.2l-1.1-0.2c-3.3-0.6-6.6-2.2-6.6-6
	c0-4.3,3.7-6.5,7.7-6.5c3.5,0,7,1.7,7.9,5.4l-4.7,1c-0.4-1.4-1.7-2.4-3.2-2.4c-1.2,0-2.7,0.6-2.7,2s2.2,1.9,3.2,2.1l1.1,0.2
	c3.3,0.6,6.6,2.3,6.6,6.1c0,4.4-4,6.7-8.1,6.7c-3.6,0-7.3-1.8-8.4-5.5L714,241.7z"/>
</svg>
